<svg xmlns="http://www.w3.org/2000/svg" viewBox="0 0 168 77" width="168" height="77"><title>Asset 1-svg</title><defs><linearGradient id="g1" x2="1" gradientUnits="userSpaceOnUse" gradientTransform="matrix(-70.846,0,0,-74.669,75.874,38.498)"><stop offset=".25" stop-color="#459a9d"></stop><stop offset=".49" stop-color="#53a4ac"></stop><stop offset=".95" stop-color="#78bfd4"></stop><stop offset="1" stop-color="#7dc2d9"></stop></linearGradient><linearGradient id="g2" x2="1" gradientUnits="userSpaceOnUse" gradientTransform="matrix(30.24,0,0,22.221,29.272,20.715)"><stop offset=".12" stop-color="#60c0e8"></stop><stop offset="1" stop-color="#57b3e0"></stop></linearGradient><linearGradient id="g3" x2="1" gradientUnits="userSpaceOnUse" gradientTransform="matrix(32.015,0,0,41.968,1.209,22.22)"><stop offset=".43" stop-color="#75a1ce"></stop><stop offset="1" stop-color="#8fd0e0"></stop></linearGradient><linearGradient id="g4" x2="1" gradientUnits="userSpaceOnUse" gradientTransform="matrix(-43.449,0,0,-35.771,59.815,53.661)"><stop offset="0" stop-color="#1692bf"></stop><stop offset="1" stop-color="#48c7eb"></stop></linearGradient><linearGradient id="g5" x2="1" gradientUnits="userSpaceOnUse" gradientTransform="matrix(15.379,0,0,5.672,.177,39.662)"><stop offset=".17" stop-color="#76cfe7"></stop><stop offset="1" stop-color="#44c6ea"></stop></linearGradient><linearGradient id="g6" x2="1" gradientUnits="userSpaceOnUse" gradientTransform="matrix(15.764,0,0,14.065,.667,35.632)"><stop offset=".17" stop-color="#96d9f2"></stop><stop offset="1" stop-color="#55c3e4"></stop></linearGradient><linearGradient id="g7" x2="1" gradientUnits="userSpaceOnUse" gradientTransform="matrix(-9.829,0,0,-9.759,31.078,34.596)"><stop offset="0" stop-color="#4bc6e4"></stop><stop offset="1" stop-color="#38b3e7"></stop></linearGradient><linearGradient id="g8" x2="1" gradientUnits="userSpaceOnUse" gradientTransform="matrix(14.226,0,0,10.034,.696,42.163)"><stop offset=".17" stop-color="#a6def4"></stop><stop offset="1" stop-color="#93d6e1"></stop></linearGradient><linearGradient id="g9" x2="1" gradientUnits="userSpaceOnUse" gradientTransform="matrix(14.226,0,0,31.197,.696,26.036)"><stop offset=".17" stop-color="#a6def4"></stop><stop offset="1" stop-color="#93d6e1"></stop></linearGradient><linearGradient id="g10" x2="1" gradientUnits="userSpaceOnUse" gradientTransform="matrix(14.261,0,0,32.88,.461,59.623)"><stop offset=".17" stop-color="#76cfe7"></stop><stop offset="1" stop-color="#44c6ea"></stop></linearGradient><linearGradient id="g11" x2="1" gradientUnits="userSpaceOnUse" gradientTransform="matrix(-15.561,0,0,-18.555,31.249,58.637)"><stop offset="0" stop-color="#4bc6e4"></stop><stop offset=".16" stop-color="#42bde5"></stop><stop offset=".46" stop-color="#3ab5e7"></stop><stop offset="1" stop-color="#38b3e7"></stop></linearGradient></defs><style>
		.s0 { fill: url(#g1) } 
		.s1 { fill: url(#g2) } 
		.s2 { fill: #231f20 } 
		.s3 { fill: #4b4c4e } 
		.s4 { fill: url(#g3) } 
		.s5 { fill: url(#g4) } 
		.s6 { fill: url(#g5) } 
		.s7 { fill: url(#g6) } 
		.s8 { fill: url(#g7) } 
		.s9 { fill: url(#g8) } 
		.s10 { fill: url(#g9) } 
		.s11 { fill: url(#g10) } 
		.s12 { fill: url(#g11) } 
	</style><g id="Layer_2"><g id="Layer_1-2"><path id="Layer" class="s0" d="m0 42.3v35.7c0 0 25.5 0.4 46.8-6 19.9-6.1 26.3-12.9 28.2-14.5v-39.7c0 0-8.4 7.8-15.9 11.5v-30.3c0 0-4.7 7.4-14.2 15.8-9.5 8.5-14.2 12-14.2 12v-24.7c0 0-1.7 9.5-7.3 16.8-5.5 7.3-8.4 10-8.4 10v-18.9c0 0-0.4 3.8-2.5 9.4-2.2 5.7-8.9 20.9-12.5 22.9z"></path><path id="Layer" class="s1" d="m44.9 14.8c-9.5 8.5-14.2 12-14.2 12-1.6 1.1-7.7 5.7-15.8 10.1-8.1 4.5-14.9 5.4-14.9 5.4 0 0 2.5 0.1 6.3 0.1 7.1 0 14.3 0.1 21.3-1.4q2.6-0.5 5.1-1.2 2.6-0.6 5.1-1.4 2.5-0.8 5-1.6 2.5-0.9 5-1.9c3.9-1.6 7.6-3.6 11.3-5.6v-30.3c0 0-4.7 7.4-14.2 15.8z"></path><path id="Layer" class="s2" d="m108.1 42.2l-18.6-24.4h-8.1v39.7h8.6v-25.1l19.2 25.1h7.6v-39.7h-8.7v24.4z"></path><path id="Layer" class="s2" d="m132.1 17.8h-8.9v39.7h28.7v-7.8h-19.8v-31.9z"></path><path id="Layer" class="s2" d="m158.2 17.8h8.9v39.7h-8.9z"></path><path id="Layer" class="s3" d="m81.4 64.6h1.3v7.4h-1.3z"></path><path id="Layer" class="s3" d="m89.5 68.3q0 1 0.1 1.7-0.4-0.6-1-1.3l-3.2-4.1h-1.2v7.4h1.3v-3.8q0-0.6 0-1.6 0.3 0.6 0.8 1.1l3.3 4.3h1.2v-7.4h-1.3z"></path><path id="Layer" class="s3" d="m118.4 68.3q0 1 0.1 1.7-0.4-0.6-0.9-1.3l-3.3-4.1h-1.2v7.4h1.3v-3.8q0-0.6 0-1.6 0.4 0.6 0.8 1.1l3.4 4.3h1.1v-7.4h-1.3z"></path><path id="Layer" class="s3" d="m151.9 68.3q0 1 0 1.7-0.3-0.6-0.9-1.3l-3.2-4.1h-1.2v7.4h1.3v-3.8q0-0.6-0.1-1.6 0.1 0.1 0.2 0.3 0.1 0.1 0.2 0.3 0.1 0.1 0.2 0.2 0.1 0.2 0.2 0.3l3.4 4.3h1.2v-7.4h-1.3z"></path><path id="Layer" class="s3" d="m91.7 65.8h2.6v6.2h1.3v-6.2h2.5v-1.2h-6.4v1.2z"></path><path id="Layer" class="s3" d="m127.6 65.8h2.5v6.2h1.3v-6.2h2.5v-1.2h-6.3v1.2z"></path><path id="Layer" class="s3" d="m100.4 68.8h3.7v-1.1h-3.7v-1.9h4v-1.2h-5.4v7.4h5.5v-1.2h-4.1v-2z"></path><path id="Layer" fill-rule="evenodd" class="s3" d="m110.1 69.3l1.9 2.7h-1.5l-1.6-2.6h-1.9v2.6h-1.3v-7.4h3.2q3 0 3 2.4c0 1.2-0.6 2-1.8 2.3zm-1.2-1q0.9 0 1.3-0.3 0.2-0.2 0.3-0.5 0.1-0.2 0.1-0.5 0-0.3-0.1-0.5-0.1-0.3-0.3-0.5-0.4-0.3-1.3-0.3h-1.9v2.6z"></path><path id="Layer" fill-rule="evenodd" class="s3" d="m125.1 64.5l3.3 7.5h-1.5l-0.7-1.6h-3.6l-0.7 1.6h-1.4l3.3-7.5zm0.1 3.4q-0.4-0.9-0.8-1.9-0.4 1.1-0.7 1.9l-0.6 1.3h2.6z"></path><path id="Layer" fill-rule="evenodd" class="s3" d="m158.5 64.5l3.3 7.5h-1.5l-0.7-1.6h-3.5l-0.7 1.6h-1.5l3.3-7.5zm0.1 3.4q-0.3-0.9-0.7-1.9-0.5 1.1-0.8 1.9l-0.5 1.3h2.6z"></path><path id="Layer" class="s3" d="m134.9 64.6h1.3v7.4h-1.3z"></path><path id="Layer" fill-rule="evenodd" class="s3" d="m144.3 65.5q1 1.1 1 2.8 0 1.7-1 2.8-1.1 1.1-2.8 1.1-1.7 0-2.8-1.1-1.1-1.1-1.1-2.8 0-1.7 1.1-2.8 1.1-1.1 2.8-1.1 1.7 0 2.8 1.1zm-0.5 3.8q0.2-0.5 0.2-1 0-0.5-0.2-1-0.2-0.5-0.5-0.9-0.4-0.3-0.9-0.5-0.4-0.2-0.9-0.2-0.5 0-1 0.2-0.5 0.2-0.8 0.5-0.4 0.4-0.5 0.9-0.2 0.5-0.2 1 0 0.5 0.2 1 0.1 0.5 0.5 0.9 0.3 0.3 0.8 0.5 0.5 0.2 1 0.2 0.5 0 0.9-0.2 0.5-0.2 0.9-0.5 0.3-0.4 0.5-0.9z"></path><path id="Layer" class="s3" d="m164.1 70.8v-6.2h-1.4v7.4h5.3v-1.2h-3.9z"></path><path id="Layer" class="s4" d="m30.7 26.8v-24.7c0 0-1.7 9.5-7.2 16.8-5.6 7.3-8.5 10-8.5 10 0 0-8.2 8.6-14.5 13.1q-0.1 0-0.1 0.1-0.1 0-0.1 0.1-0.1 0-0.2 0 0 0.1-0.1 0.1c0 0 6.8-0.9 14.9-5.4 8.1-4.4 14.2-9 15.8-10.1z"></path><path id="Layer" class="s5" d="m27.6 41c-7 1.5-14.2 1.4-21.3 1.4-3.8 0-6.3-0.1-6.3-0.1v35.7c5-1.4 15.8-5.6 33.3-14.6 17.5-9 25.8-20.3 25.8-20.3v-13.8c-3.7 2-7.4 4-11.3 5.6q-2.5 1-5 1.9-2.5 0.8-5 1.6-2.5 0.8-5 1.4-2.6 0.7-5.2 1.2z"></path><path id="Layer" class="s6" d="m14.9 36.9c-8.1 4.5-14.9 5.4-14.9 5.4 0 0 2.5 0.1 6.3 0.1 2.9 0 5.8 0.1 8.7 0q0-1.3 0-2.4v-3.1z"></path><path id="Layer" class="s7" d="m0.5 42q-0.1 0-0.1 0.1-0.1 0-0.1 0.1-0.1 0-0.2 0 0 0.1-0.1 0.1c0 0 6.8-0.9 14.9-5.4h0.1v-8c0 0-8.2 8.6-14.5 13.1z"></path><path id="Layer" class="s8" d="m29.2 40.7q0.7-0.2 1.5-0.4v-13.5c-1.6 1.1-7.6 5.7-15.7 10.1v5.5l0.7-0.1h0.3 0.5 0.3 0.4 0.3 0.5l0.3-0.1h0.6 0.1q0.4 0 0.7-0.1h0.2 0.6 0.2l0.5-0.1h0.3l0.5-0.1h0.2l0.6-0.1h0.2q0.3 0 0.7-0.1h0.1l0.6-0.1h0.3l0.4-0.1h0.3l0.5-0.1 0.3-0.1 0.4-0.1h0.3l0.7-0.1q0.8-0.2 1.5-0.4z"></path><path id="Layer" class="s9" d="m0.3 42.1l-0.1 0.1z"></path><path id="Layer" class="s10" d="m12.5 19.4c-2.1 5.5-8.5 19.9-12.1 22.7l0.1-0.1c6.3-4.5 14.5-13.1 14.5-13.1v-18.9c0 0-0.4 3.8-2.5 9.4z"></path><path id="Layer" class="s11" d="m2.9 74.3c2.3-3.2 7.6-13.7 9.6-18.8 2-5.1 2.5-8.7 2.5-10.2v-2.9c-2.9 0.1-5.8 0-8.7 0-3.8 0-6.3-0.1-6.3-0.1v34.6q0.4-0.2 0.8-0.5 0.4-0.3 0.8-0.6 0.4-0.4 0.7-0.7 0.3-0.4 0.6-0.8z"></path><path id="Layer" class="s12" d="m30.7 44.8v-4.5q-1.5 0.4-3.1 0.7c-4.1 0.9-8.3 1.2-12.6 1.4v2.9c0 1.5-0.5 5.1-2.5 10.2-2 5.1-7.3 15.6-9.6 18.8q-0.3 0.4-0.6 0.8-0.3 0.3-0.7 0.7-0.4 0.3-0.8 0.6-0.4 0.3-0.8 0.5c12.4-7.3 20.2-13.6 25.6-20.7 5.4-7 5.1-9 5.1-11.4z"></path></g></g></svg>