<svg width="88" height="64" viewBox="0 0 88 64" fill="none" xmlns="http://www.w3.org/2000/svg">
<path fill-rule="evenodd" clip-rule="evenodd" d="M55.41 15.502C54.7404 15.5844 53.6937 15.5846 52.8564 15.6256C51.9774 15.6253 51.3495 15.7077 44.6932 15.7899C38.0788 15.8721 25.6011 15.9592 13 16V16.3232C26.0613 16.7749 38.9578 17.2675 45.7815 17.4725C52.5636 17.719 53.1079 17.719 53.568 17.7599C54.0289 17.8011 54.4056 17.924 54.6984 18.0881C54.9914 18.2931 54.9584 18.6718 55 19H82L83 15H56.5C56.2905 15.3282 56.1219 15.4202 55.41 15.502Z" fill="#CE1117"/>
<path fill-rule="evenodd" clip-rule="evenodd" d="M48.1655 12.3805C56.8316 12.6678 56.9583 13.4254 57 14H83L84.0005 10H58.5795C58.4538 10.2458 58.1711 10.5338 57.7942 10.7388C57.4594 10.862 56.9567 10.9852 54.9055 11.0673C52.8124 11.1494 49.1703 11.1494 45.4866 11.0673L4.96289 11.7539V12C22.252 12 39.4999 12.0931 48.1655 12.3805Z" fill="#CE1117"/>
<path fill-rule="evenodd" clip-rule="evenodd" d="M11 22C24.2293 22.0819 37.4157 22.3398 44.4071 22.5447C51.3983 22.7501 52.1939 22.9551 52.7798 23.2015C53.4076 23.4066 53.8266 23.653 54.2032 23.9816L69.0645 23.9812C68.7714 23.2837 68.4786 22.586 68.353 21.8883C68.2272 21.2726 68.3112 20.6156 68.353 20L55.6264 20.0005C55.3333 20.2464 54.9568 20.452 54.5381 20.5752C54.0776 20.6979 53.5333 20.7393 52.9892 20.7804C52.4446 20.8214 51.8591 20.8626 44.8677 21.0265C37.8764 21.1902 24.4384 21.4781 11 21.7654V22Z" fill="#CE1117"/>
<path fill-rule="evenodd" clip-rule="evenodd" d="M70.8782 26.9791C70.2542 26.3055 69.7965 25.6734 69.339 25.0004L54.1536 25C53.9037 25.3363 53.5294 25.5895 53.0303 25.758C52.5308 25.8425 51.8651 25.8844 51.1997 25.8844C50.534 25.9264 49.8268 26.0105 44.2933 26.137C38.7599 26.3055 28.4006 26.5159 18.0418 26.7265L18 27C28.9002 27.1684 39.7585 27.4002 45.5416 27.5686C51.3246 27.7367 52.0319 27.8208 52.614 27.9473C53.1963 28.0314 53.6125 28.116 54.0284 28.2842C54.4029 28.4523 54.7777 28.7052 55.0688 29L73 28.9998C72.2511 28.3264 71.4606 27.6529 70.8782 26.9791Z" fill="#CE1117"/>
<path fill-rule="evenodd" clip-rule="evenodd" d="M54.2862 30.7382C53.8257 30.9028 53.1976 30.9848 47.4625 31.2721C41.7271 31.5178 30.8846 32.3024 20 32.7127L20.0421 33C30.9683 32.9591 41.9368 32.7906 47.8812 32.8724C53.8257 32.9956 54.8307 33.1189 55.542 33.3238C56.2956 33.4883 56.7978 33.6933 57.2586 33.9805L78.8598 33.9803C78.5668 33.3238 78.1479 32.7494 77.6458 32.2159C77.1015 31.7231 76.474 31.2307 75.8876 30.8616C75.2596 30.4919 74.7154 30.2052 74.1293 30H55.1652C54.9978 30.3278 54.7049 30.5742 54.2862 30.7382Z" fill="#CE1117"/>
<path fill-rule="evenodd" clip-rule="evenodd" d="M17.0006 37.2917C30.003 37.3747 43.0045 37.6251 50.0282 37.7498C57.0523 37.8332 58.0973 37.9168 58.9335 38.0833C59.7697 38.25 60.3967 38.5835 60.9402 39H79.9628C80.0047 38.3336 80.0464 37.6669 79.8791 37.0003C79.7537 36.3333 79.461 35.6674 79.1688 35.0004L57.8462 35C57.3864 35.2085 56.8848 35.3753 56.1742 35.4587C55.4215 35.5832 54.3765 35.6674 47.8126 35.9585C41.2486 36.2087 29.0831 36.5417 16.959 37L17.0006 37.2917Z" fill="#CE1117"/>
<path fill-rule="evenodd" clip-rule="evenodd" d="M79.2606 42.0109C79.4703 41.3547 79.5537 40.6568 79.6793 40H61.0504C60.5899 40.3286 60.0877 40.5748 59.3338 40.7388C58.6223 40.8621 57.6595 40.903 48.7005 41.1079C39.7839 41.3133 22.913 41.6718 6 42V42.2868C23.164 42.2459 40.3281 42.3805 49.4124 42.5034C58.4965 42.6264 59.4592 42.7498 60.1294 42.9961C60.7571 43.2423 61.0504 43.5708 61.1757 43.9814L78.4655 43.981C78.8001 43.3652 79.0935 42.6679 79.2606 42.0109Z" fill="#CE1117"/>
<path fill-rule="evenodd" clip-rule="evenodd" d="M47.0487 45.9483C46.5446 46.113 45.8307 46.196 45.2008 46.2371C44.5291 46.2785 43.857 46.3194 37.8091 46.4845C31.8036 46.6491 20.3811 46.7526 9 47V47.2883C20.4651 47.5774 31.9719 47.9278 38.1453 48.0516C44.3188 48.1344 45.2008 48.0516 45.8307 48.1754C46.5025 48.2991 46.9644 48.6291 47.2584 49H75.3961C75.9003 48.3814 76.404 47.7629 76.8242 47.1029C77.244 46.4431 77.6221 45.701 78 45L48.0987 45.0822C47.8886 45.4537 47.5528 45.742 47.0487 45.9483Z" fill="#CE1117"/>
<path fill-rule="evenodd" clip-rule="evenodd" d="M70.672 53.319C71.7955 52.9358 72.6277 52.3829 73.3352 51.8297C74.0426 51.2338 74.5836 50.638 75 50H47.6156C47.4078 50.2977 47.075 50.5108 46.5755 50.638C46.0762 50.7658 45.4104 50.8087 38.4602 50.9786C31.5102 51.149 18.2758 51.4472 5.04166 51.7021L4.99982 52C17.9849 52.2129 30.9695 52.4679 37.8359 52.5956C44.7027 52.7658 45.452 52.8085 45.993 53.0214C46.5339 53.1916 46.9085 53.5743 47.075 54L66.9264 53.9997C68.2996 53.9576 69.59 53.702 70.672 53.319Z" fill="#CE1117"/>
</svg>
